<svg xmlns="http://www.w3.org/2000/svg" width="24" height="24" viewBox="0 0 24 24">
  <path d="M17 1H7C5.9 1 5 1.9 5 3V19c0 1.1.9 2 2 2h10c1.1 0 2-0.9 2-2V3c0-1.1-.9-2-2-2zM7 21c-0.55 0-1-0.45-1-1V3c0-0.55 0.45-1 1-1h10c0.55 0 1 0.45 1 1v17c0 0.55-0.45 1-1 1H7z"/>
  <path d="M17 3H7c-0.55 0-1 0.45-1 1s0.45 1 1 1h10c0.55 0 1-0.45 1-1S17.55 3 17 3zM17 5c-0.55 0-1 0.45-1 1s0.45 1 1 1h2c0.55 0 1-0.45 1-1s-0.45-1-1-1H17zM7 7c-0.55 0-1 0.45-1 1s0.45 1 1 1h6c0.55 0 1-0.45 1-1s-0.45-1-1-1H7zM7 9c-0.55 0-1 0.45-1 1s0.45 1 1 1h6c0.55 0 1-0.45 1-1s-0.45-1-1-1H7zM7 11c-0.55 0-1 0.45-1 1s0.45 1 1 1h6c0.55 0-1-0.45-1-1s0.45-1-1-1H7zM7 13c-0.55 0-1 0.45-1 1s0.45 1 1 1h4c0.55 0 1-0.45 1-1s-0.45-1-1-1H7z"/>
</svg>
